<svg width="29" height="29" viewBox="0 0 29 29" fill="none" xmlns="http://www.w3.org/2000/svg">
<g clip-path="url(#clip0_879_2292)">
<path d="M17.2665 4.11686C17.192 4.04032 17.1029 3.97948 17.0044 3.93794C16.906 3.8964 16.8003 3.875 16.6934 3.875C16.5866 3.875 16.4809 3.8964 16.3824 3.93794C16.284 3.97948 16.1949 4.04032 16.1204 4.11686C15.9676 4.27375 15.8821 4.48409 15.8821 4.70309C15.8821 4.92209 15.9676 5.13243 16.1204 5.28932L24.6862 14.0749L16.1204 22.8622C16.0433 22.9411 15.9825 23.0345 15.9415 23.1369C15.9004 23.2394 15.88 23.3489 15.8813 23.4592C15.8826 23.5696 15.9056 23.6786 15.9491 23.78C15.9925 23.8815 16.0555 23.9734 16.1345 24.0504C16.2097 24.1239 16.2986 24.1819 16.3963 24.221C16.4939 24.26 16.5982 24.2795 16.7034 24.2782C16.8085 24.2769 16.9124 24.2548 17.009 24.2134C17.1056 24.1719 17.1931 24.1117 17.2665 24.0364L26.3755 14.6883C26.5355 14.5242 26.625 14.3041 26.625 14.0749C26.625 13.8457 26.5355 13.6255 26.3755 13.4614L17.2665 4.11686ZM10.2352 4.11686C10.1607 4.04032 10.0716 3.97948 9.97319 3.93794C9.87477 3.8964 9.76902 3.875 9.6622 3.875C9.55537 3.875 9.44962 3.8964 9.3512 3.93794C9.25278 3.97948 9.16367 4.04032 9.08915 4.11686C8.93635 4.27375 8.85085 4.48409 8.85085 4.70309C8.85085 4.92209 8.93635 5.13243 9.08915 5.28932L17.655 14.0749L9.08915 22.8622C9.01204 22.9411 8.95124 23.0345 8.91021 23.1369C8.86919 23.2394 8.84875 23.3489 8.85005 23.4592C8.85136 23.5696 8.87439 23.6786 8.91782 23.78C8.96126 23.8815 9.02426 23.9734 9.10321 24.0504C9.17842 24.1239 9.26738 24.1819 9.365 24.221C9.46263 24.26 9.567 24.2795 9.67214 24.2782C9.77729 24.2769 9.88115 24.2548 9.97777 24.2134C10.0744 24.1719 10.1619 24.1117 10.2352 24.0364L19.3442 14.6883C19.5042 14.5242 19.5938 14.3041 19.5938 14.0749C19.5938 13.8457 19.5042 13.6255 19.3442 13.4614L10.2352 4.11686Z" fill="#1E9932"/>
</g>
<defs>
<clipPath id="clip0_879_2292">
<rect width="28.125" height="28.125" fill="white" transform="matrix(-1 0 0 1 28.375 0)"/>
</clipPath>
</defs>
</svg>
