<svg width="30" height="30" viewBox="0 0 30 30" fill="none" xmlns="http://www.w3.org/2000/svg">
<g id="Frame 1527">
<rect width="30" height="30" rx="15" fill="#D9D9D9"/>
<g id="Group">
<path id="Vector" d="M8 20.3802C8 19.493 8.3795 18.6422 9.05502 18.0149C9.73053 17.3876 10.6467 17.0352 11.6021 17.0352H18.8062C19.7615 17.0352 20.6777 17.3876 21.3532 18.0149C22.0287 18.6422 22.4082 19.493 22.4082 20.3802C22.4082 20.8237 22.2185 21.2491 21.8807 21.5628C21.5429 21.8765 21.0848 22.0527 20.6072 22.0527H9.80103C9.32336 22.0527 8.86527 21.8765 8.52751 21.5628C8.18975 21.2491 8 20.8237 8 20.3802Z" stroke="#181870" stroke-width="3.12502" stroke-linejoin="round"/>
<path id="Vector_2" d="M15.2015 13.0175C16.6936 13.0175 17.9031 11.8943 17.9031 10.5088C17.9031 9.12321 16.6936 8 15.2015 8C13.7095 8 12.5 9.12321 12.5 10.5088C12.5 11.8943 13.7095 13.0175 15.2015 13.0175Z" stroke="#181870" stroke-width="3.12502"/>
</g>
</g>
</svg>
